<svg width="142" height="142" viewBox="0 0 142 142" fill="none" xmlns="http://www.w3.org/2000/svg">
<path d="M75.7618 2.00394C67.3761 2.00394 59.0725 2.86877 51.3251 4.54905C43.5778 6.22933 36.5383 8.69215 30.6088 11.7969C24.6792 14.9016 19.9756 18.5875 16.7665 22.644C13.5575 26.7006 11.9058 31.0484 11.9058 35.4392C11.9336 42.4938 16.2223 49.3631 24.1583 55.0641V131.44H127.365V55.0754C135.306 49.3713 139.595 42.4977 139.618 35.4392C139.618 31.0484 137.966 26.7006 134.757 22.644C131.548 18.5875 126.844 14.9016 120.915 11.7969C114.985 8.69215 107.946 6.22933 100.198 4.54905C92.4511 2.86877 84.1475 2.00394 75.7618 2.00394V2.00394Z" fill="#FFFCF0"/>
<path d="M47.7078 5.4505C21.258 10.477 2.38253 23.6401 2.3822 39.0889C2.41154 46.6468 7.05501 54.006 15.6458 60.1137V139.997H121.147L127.199 131.44H103.915H24.1592V55.064C16.2236 49.363 11.9352 42.494 11.9074 35.4396C11.9239 29.1883 15.2871 23.0646 21.6152 17.7637C27.9434 12.4628 36.9829 8.19703 47.7078 5.4505V5.4505Z" fill="#C98E57"/>
<path fill-rule="evenodd" clip-rule="evenodd" d="M33.9182 64.2108C33.6774 64.2146 33.4398 64.2657 33.2188 64.3613C32.9978 64.4569 32.7978 64.5952 32.6302 64.7681C32.4626 64.941 32.3307 65.1451 32.2421 65.369C32.1534 65.5928 32.1097 65.832 32.1135 66.0728V117.521C32.1101 117.764 32.155 118.005 32.2455 118.23C32.3361 118.456 32.4706 118.661 32.6412 118.834C32.8118 119.007 33.0151 119.144 33.2392 119.238C33.4633 119.332 33.7039 119.38 33.9468 119.38C34.1898 119.38 34.4303 119.332 34.6545 119.238C34.8786 119.144 35.0819 119.007 35.2525 118.834C35.423 118.661 35.5575 118.456 35.6481 118.23C35.7387 118.005 35.7836 117.764 35.7802 117.521V66.0728C35.784 65.8272 35.7385 65.5834 35.6463 65.3558C35.554 65.1281 35.417 64.9213 35.2434 64.7476C35.0697 64.5739 34.8629 64.437 34.6353 64.3448C34.4076 64.2526 34.1638 64.207 33.9182 64.2108V64.2108Z" fill="#E6D8BE"/>
<path d="M75.7642 0.170222C65.0471 0.170222 54.9394 1.53313 45.9931 3.95606C33.1555 6.55672 22.0789 11.0234 14.0468 16.8787C5.72321 22.9464 0.546452 30.6223 0.546268 39.0933C0.546263 39.0958 0.546263 39.0982 0.546268 39.1007C0.575602 47.0968 5.51773 54.6242 13.8175 60.8283V139.999C13.8178 140.485 14.011 140.951 14.3545 141.294C14.6981 141.638 15.1639 141.831 15.6498 141.831H121.147C121.439 141.831 121.728 141.761 121.988 141.626C122.248 141.492 122.472 141.297 122.642 141.058L128.343 132.99C128.659 132.791 128.907 132.5 129.054 132.156C129.077 132.102 129.098 132.046 129.116 131.989C129.117 131.987 129.118 131.985 129.118 131.982C129.118 131.981 129.118 131.98 129.118 131.978C129.135 131.926 129.148 131.873 129.16 131.819C129.162 131.812 129.165 131.805 129.167 131.797C129.176 131.752 129.184 131.707 129.189 131.661C129.192 131.643 129.195 131.625 129.197 131.608C129.203 131.553 129.206 131.498 129.208 131.443C129.208 131.442 129.208 131.442 129.208 131.441C129.208 131.44 129.208 131.44 129.208 131.439V111.481V55.7719C136.859 49.9693 141.429 42.9262 141.454 35.4406C141.454 35.4382 141.454 35.4358 141.454 35.4334C141.454 25.2543 133.67 16.3964 121.774 10.1681C109.879 3.93972 93.6632 0.169122 75.7704 0.169159L75.7642 0.170222ZM75.7642 3.83678V3.83857C93.1382 3.83857 108.849 7.54785 120.065 13.4207C131.281 19.2935 137.781 27.1477 137.781 35.4344C137.759 41.7541 133.922 48.1015 126.295 53.5809C126.059 53.7512 125.867 53.975 125.735 54.234C125.603 54.4929 125.535 54.7796 125.535 55.0703V111.482V113.265V129.608H25.9916V55.0646C25.991 55.0032 25.9873 54.9419 25.9806 54.8809C25.9553 54.6222 25.8753 54.3719 25.746 54.1465C25.6166 53.9211 25.4408 53.7257 25.2302 53.5734C17.6134 48.1015 13.7749 41.7589 13.7439 35.4478C13.7445 35.2351 13.7586 35.0236 13.7659 34.8112C13.7733 34.6323 13.7806 34.4533 13.7916 34.2749C13.8136 33.9727 13.8459 33.6704 13.8862 33.3692C13.8935 33.3145 13.9045 33.2606 13.9119 33.2064C14.6247 28.2772 17.6365 23.4862 22.7871 19.1716C28.716 14.2051 37.4255 9.97401 48.1604 7.22493C48.285 7.19105 48.4057 7.14407 48.5205 7.08483C56.7384 5.01177 65.9869 3.83711 75.7621 3.83711L75.7642 3.83678ZM17.3058 19.2377C13.0624 23.6757 10.4793 28.7233 10.1321 34.1763C10.1174 34.3805 10.1101 34.5866 10.1027 34.7921C10.0954 35.0069 10.0734 35.2186 10.0734 35.4345C10.0734 35.4369 10.0734 35.4393 10.0734 35.4417C10.0881 39.1841 11.2422 42.8162 13.3476 46.2384C13.8728 47.0921 14.4556 47.9325 15.0965 48.7585C15.0971 48.7591 15.0979 48.7597 15.0984 48.7604C15.4189 49.1734 15.7543 49.5828 16.1027 49.9882C16.103 49.9886 16.1023 49.9898 16.1027 49.9901C16.4514 50.3959 16.8143 50.7973 17.1903 51.1952C18.6947 52.7876 20.4148 54.3153 22.3271 55.7654V131.44C22.3272 131.562 22.3394 131.684 22.3637 131.804C22.3637 131.804 22.3637 131.805 22.3637 131.806C22.4479 132.22 22.6727 132.593 23.0001 132.86C23.3274 133.128 23.7372 133.274 24.16 133.274H123.662L120.204 138.165H17.4839V60.112C17.4829 59.8201 17.4122 59.5327 17.2778 59.2736C17.1433 59.0146 16.9489 58.7914 16.7109 58.6226C8.43522 52.7391 4.24182 45.9023 4.21271 39.0929V39.0856C4.21561 32.1103 8.48443 25.4747 16.2087 19.8439C16.5182 19.6184 16.9086 19.4265 17.3058 19.2375V19.2377Z" fill="#666666"/>
<path d="M114.091 29.807H112.197C111.319 29.2839 110.386 28.8614 109.415 28.5474C106.356 27.5263 102.316 27 97.4043 27C92.492 27 88.4524 27.5263 85.4001 28.5474C82.9562 29.3702 81.8802 30.2772 81.5326 30.6298C80.4102 30.0882 79.182 29.807 77.9379 29.807C76.6939 29.807 75.4656 30.0882 74.3433 30.6298V30.6298C73.9956 30.2789 72.9197 29.3702 70.4757 28.5474C67.4199 27.5263 63.3803 27 58.4681 27C53.5559 27 49.5162 27.5263 46.4639 28.5474C45.4933 28.8614 44.5604 29.2839 43.6828 29.807H41.7812C41.0435 29.807 40.3361 30.1027 39.8146 30.6291C39.293 31.1556 39 31.8695 39 32.614C39 33.3584 39.293 34.0724 39.8146 34.5988C40.3361 35.1252 41.0435 35.421 41.7812 35.421H41.8107C41.9845 43.3963 42.9301 48.1893 44.9586 51.6015C46.2293 53.8046 48.1773 55.5292 50.507 56.5138C52.6329 57.4331 55.2385 57.8804 58.4681 57.8804C62.6659 57.8804 68.6332 57.2295 71.9775 51.605C73.6601 48.7735 74.6005 44.9928 74.969 39.2332C75.0915 38.9125 75.1545 38.5717 75.155 38.228C75.155 37.4835 75.448 36.7695 75.9696 36.2431C76.4912 35.7167 77.1986 35.421 77.9362 35.421C78.6738 35.421 79.3812 35.7167 79.9027 36.2431C80.4243 36.7695 80.7173 37.4835 80.7173 38.228C80.7182 38.5705 80.7813 38.91 80.9033 39.2297C81.2718 44.9893 82.2122 48.77 83.8948 51.6015C85.1655 53.8046 87.1135 55.5292 89.4432 56.5138C91.569 57.4331 94.1746 57.8804 97.4043 57.8804C101.602 57.8804 107.569 57.2295 110.914 51.605C112.942 48.1928 113.891 43.3998 114.062 35.4245H114.091C114.829 35.4245 115.536 35.1287 116.058 34.6023C116.579 34.0759 116.872 33.362 116.872 32.6175C116.872 31.873 116.579 31.1591 116.058 30.6327C115.536 30.1062 114.829 29.8105 114.091 29.8105V29.807Z" fill="black"/>
<path d="M77.7428 88.0558C78.0354 88.0558 84.9544 87.9839 88.482 81.7439L85.2826 80C84.5568 81.3465 83.4712 82.4733 82.1425 83.2591C80.8137 84.045 79.292 84.4602 77.741 84.4602C76.19 84.4602 74.6683 84.045 73.3396 83.2591C72.0108 82.4733 70.9252 81.3465 70.1995 80L67 81.7439C70.5313 87.9839 77.4503 88.0558 77.7428 88.0558Z" fill="black"/>
</svg>
